<svg width="40" height="40" viewBox="0 0 40 40" fill="none" xmlns="http://www.w3.org/2000/svg">
<rect width="40" height="40" rx="16" fill="#797EA4" fill-opacity="0.4"/>
<circle cx="18.5" cy="18.5" r="7.8" stroke="#797EA4" stroke-width="1.4"/>
<path d="M28.3127 15.5775C28.3802 15.5775 28.414 15.536 28.4266 15.4739C28.5744 14.6244 28.5617 14.5539 29.524 14.3965C29.5873 14.3882 29.6253 14.3509 29.6253 14.2887C29.6253 14.2266 29.5873 14.1851 29.524 14.1769C28.5617 14.0194 28.5744 13.9489 28.4266 13.0995C28.414 13.0373 28.3802 13 28.3127 13C28.2451 13 28.2114 13.0373 28.1987 13.0995C28.051 13.9489 28.0636 14.0194 27.1013 14.1769C27.038 14.1851 27 14.2266 27 14.2887C27 14.3509 27.038 14.3882 27.1013 14.3965C28.0636 14.5539 28.051 14.6244 28.1987 15.4739C28.2114 15.536 28.2451 15.5775 28.3127 15.5775Z" fill="#DCE0FB"/>
<path d="M24 25L29 30" stroke="#797EA4" stroke-width="1.4" stroke-linecap="round"/>
<path d="M18.0429 19.003C18.1273 19.003 18.1906 18.9449 18.2033 18.8621C18.4059 17.4283 18.4396 17.4407 19.9422 17.1589C20.0224 17.1424 20.0857 17.0885 20.0857 17.0015C20.0857 16.9145 20.0224 16.8564 19.9422 16.844C18.4396 16.6202 18.4016 16.5912 18.2033 15.145C18.1906 15.058 18.1273 15 18.0429 15C17.9585 15 17.8951 15.058 17.8825 15.1492C17.6925 16.5788 17.6377 16.5622 16.1435 16.844C16.0633 16.8606 16 16.9145 16 17.0015C16 17.0926 16.0633 17.1424 16.1604 17.1589C17.6461 17.4034 17.6925 17.4242 17.8825 18.8538C17.8951 18.9449 17.9585 19.003 18.0429 19.003Z" fill="#DCE0FB"/>
<path d="M22.263 17.3581C22.3938 17.3581 22.4909 17.2712 22.5078 17.1385C22.8792 14.126 23.276 13.7281 26.2938 13.4173C26.4332 13.4049 26.526 13.3096 26.526 13.1812C26.526 13.0527 26.4332 12.9532 26.2938 12.9408C23.276 12.63 22.8792 12.2322 22.5078 9.21963C22.4909 9.09117 22.3938 9 22.263 9C22.1322 9 22.0393 9.09117 22.0182 9.21963C21.6468 12.2322 21.25 12.63 18.2321 12.9408C18.0929 12.9532 18 13.0527 18 13.1812C18 13.3096 18.0929 13.4049 18.2321 13.4173C21.2416 13.7986 21.6214 14.1301 22.0182 17.1385C22.0393 17.2712 22.1322 17.3581 22.263 17.3581Z" fill="#DCE0FB"/>
</svg>
