<svg width="82" height="46" viewBox="0 0 82 46" fill="none" xmlns="http://www.w3.org/2000/svg">
<path d="M21.4805 13.7554C29.984 13.7554 26.5063 34.2411 35.0099 34.2411C43.5134 34.2411 26.1198 13.7554 35.0099 13.7554C43.8999 13.7554 42.3527 34.2411 51.6304 34.2411C60.908 34.2411 40.8066 13.7554 50.4697 13.7554C58.5867 13.7554 58.5867 34.2411 69.0228 34.2411" stroke="black"/>
<path d="M21.5391 3.23739C24.6819 2.32926 31.2827 0.625182 32.5434 1.0739C34.1193 1.63481 31.6887 3.34423 31.6887 4.9201C31.6887 6.18079 32.4722 7.86706 32.864 8.55261" stroke="black"/>
<path d="M15.4869 29.4685L23.9453 7.08679L21.6057 3.09351" stroke="black"/>
<ellipse cx="10.0962" cy="13.3014" rx="10.0962" ry="13.3014" transform="matrix(-0.947037 0.321124 0.321124 0.947037 19.3711 13.4053)" fill="#FF335F"/>
<path d="M6.8245 31.7046C7.74606 34.4224 9.41106 36.5814 11.336 37.8832C13.2606 39.1847 15.4173 39.6156 17.3715 38.953C19.3256 38.2904 20.7754 36.6366 21.5115 34.4329C22.2476 32.2287 22.2561 29.5023 21.3345 26.7845C20.4129 24.0667 18.7479 21.9077 16.823 20.6059C14.8984 19.3043 12.7417 18.8734 10.7875 19.536C8.83336 20.1986 7.38356 21.8525 6.64754 24.0562C5.91137 26.2603 5.90294 28.9868 6.8245 31.7046Z" stroke="white"/>
<ellipse cx="10.0962" cy="13.3014" rx="10.0962" ry="13.3014" transform="matrix(-0.947037 0.321124 0.321124 0.947037 73.457 13.3687)" fill="#FF335F"/>
<path d="M60.8059 31.7035C61.7404 34.4595 63.4289 36.6492 65.3813 37.9696C67.3334 39.2897 69.5217 39.7272 71.5048 39.0548C73.488 38.3823 74.9588 36.7041 75.7053 34.4689C76.452 32.2332 76.4605 29.4682 75.526 26.7122C74.5914 23.9562 72.9029 21.7665 70.9505 20.4462C68.9984 19.126 66.8101 18.6885 64.827 19.361C62.8438 20.0334 61.373 21.7116 60.6265 23.9468C59.8798 26.1825 59.8713 28.9475 60.8059 31.7035Z" stroke="white"/>
</svg>
